<svg width="55" height="56" viewBox="0 0 55 56" fill="none" xmlns="http://www.w3.org/2000/svg">
<path d="M47.9998 28.7182V28.0983L49.7663 27.3111C52.7756 25.97 54.7198 22.9745 54.7198 19.6801C54.7198 19.3582 54.5586 19.0577 54.2902 18.8801C54.0222 18.7023 53.6826 18.6701 53.3862 18.7959L45.1021 22.2958C45.11 22.0645 45.1196 21.8336 45.1196 21.6003C45.1196 15.7311 42.5679 10.2375 38.2616 6.45319C38.1786 6.33871 38.0694 6.24295 37.9378 6.17287C36.9267 5.32159 35.8244 4.56199 34.639 3.91207C34.4005 3.78151 34.118 3.75751 33.8614 3.84727C33.6046 3.93679 33.398 4.13095 33.2926 4.38151L22.3338 30.433C21.3291 30.4371 20.3502 30.0332 19.6386 29.3213C15.9558 25.6385 9.96369 25.6385 6.28089 29.3213C4.32729 31.2749 3.41049 33.8785 3.52953 36.4424C3.52473 36.4477 3.51897 36.4513 3.51441 36.4565L0.24033 40.1648C0.00945047 40.4264 -0.0613495 40.7926 0.0552905 41.1214C0.171931 41.4502 0.45801 41.6897 0.80217 41.7471L6.26001 42.6567C6.26721 42.6639 6.27393 42.6716 6.28113 42.679C7.02609 43.424 7.73769 44.0218 8.45673 44.5066C13.7571 48.0809 18.8408 49.2833 23.283 49.2831C26.7226 49.2831 29.7781 48.5619 32.2496 47.6624C38.3485 45.4431 42.1875 41.7757 42.3308 41.6369C45.9337 38.3223 47.9998 33.6137 47.9998 28.7182ZM52.6162 21.2053C52.1502 23.1113 50.8263 24.7364 48.9848 25.5572L44.1738 27.7016C44.5069 26.6552 44.7548 25.5718 44.9137 24.4597L52.6162 21.2053ZM34.6376 6.13591C35.2218 6.50191 35.7793 6.89983 36.3121 7.32391L27.9169 26.983C27.7086 27.4707 27.9351 28.0347 28.4228 28.243C28.5457 28.2956 28.6736 28.3203 28.7994 28.3203C29.1723 28.3203 29.5271 28.1017 29.6828 27.7371L37.8255 8.66911C38.6595 9.49951 39.4076 10.4062 40.0626 11.3739L31.7571 30.823C31.5488 31.3107 31.7754 31.8747 32.263 32.083C32.3859 32.1356 32.5138 32.1603 32.6396 32.1603C33.0126 32.1603 33.3673 31.9417 33.523 31.5771L41.2695 13.4369C42.5168 15.9289 43.1998 18.7141 43.1998 21.6001C43.1998 31.6577 35.0175 39.8401 24.9598 39.8401C23.5076 39.8401 22.07 39.6701 20.6727 39.3337L21.56 37.2245C23.0134 37.5378 24.6829 37.4468 26.529 36.938C29.1198 36.224 31.1497 34.9445 31.2349 34.8905C31.6822 34.6061 31.8147 34.0129 31.5301 33.5655C31.2455 33.1181 30.6522 32.9857 30.205 33.2703C30.1498 33.3056 25.8995 35.9612 22.3225 35.4125L34.6376 6.13591ZM2.82537 40.1377L3.95985 38.8529C4.13097 39.3958 4.35057 39.9265 4.62201 40.4372L2.82537 40.1377ZM41.0146 40.2394C40.9777 40.2747 37.2622 43.8118 31.5275 45.8821C23.9226 48.6274 16.5217 47.6293 9.53025 42.9149C8.91441 42.4997 8.29569 41.9785 7.63881 41.3213C4.70457 38.3873 4.70457 33.613 7.63881 30.679C10.5728 27.7448 15.3471 27.7448 18.2811 30.679C19.165 31.5632 20.3195 32.1293 21.5487 32.3005L20.5035 34.7849C20.1195 34.5586 19.7576 34.2713 19.4271 33.9111C16.8445 31.0981 14.4915 29.8702 12.4314 30.2624C10.7586 30.5809 9.36825 31.9769 8.51673 34.1938C8.14425 35.1641 8.27241 36.2626 8.86017 37.1317C9.42513 37.9671 10.3139 38.455 11.2942 38.4697L11.3495 38.4701C13.1084 38.4701 14.5393 37.1156 14.5393 35.4507C14.5393 34.9205 14.1095 34.4907 13.5793 34.4907C13.0491 34.4907 12.6193 34.9205 12.6193 35.4507C12.6193 36.0567 12.05 36.5499 11.3276 36.5499C11.3276 36.5499 11.3274 36.5499 11.3271 36.5499C10.8503 36.5427 10.5733 36.2374 10.4507 36.056C10.2143 35.7061 10.1612 35.2673 10.3091 34.8821C10.659 33.9711 11.4467 32.4041 12.7902 32.1485C14.1332 31.8937 15.9394 32.9516 18.0128 35.2095C18.5262 35.7687 19.1098 36.2192 19.7542 36.566L18.4782 39.5996C18.3728 39.8499 18.3786 40.1336 18.494 40.3796C18.6092 40.6256 18.8238 40.8111 19.0837 40.8903C20.9811 41.4673 22.9585 41.7601 24.9598 41.7601C32.9804 41.7601 39.9205 37.051 43.1648 30.2533L46.0736 28.9568C46.0076 33.2307 44.1807 37.3261 41.0146 40.2394Z" fill="#E4E4E4"/>
<path d="M7.20023 4.8C7.73039 4.8 8.16023 4.37016 8.16023 3.84V0.960001C8.16023 0.42984 7.73039 0 7.20023 0C6.67007 0 6.24023 0.42984 6.24023 0.960001V3.84C6.24023 4.37016 6.67007 4.8 7.20023 4.8Z" fill="#E4E4E4"/>
<path d="M7.20023 6.71997C6.67007 6.71997 6.24023 7.14981 6.24023 7.67997V10.56C6.24023 11.0901 6.67007 11.52 7.20023 11.52C7.73039 11.52 8.16023 11.0901 8.16023 10.56V7.67997C8.16023 7.14981 7.73039 6.71997 7.20023 6.71997Z" fill="#E4E4E4"/>
<path d="M2.39945 6.72005H5.27946C5.80962 6.72005 6.23946 6.29021 6.23946 5.76005C6.23946 5.22989 5.80962 4.80005 5.27946 4.80005H2.39945C1.86929 4.80005 1.43945 5.22989 1.43945 5.76005C1.43945 6.29021 1.86929 6.72005 2.39945 6.72005Z" fill="#E4E4E4"/>
<path d="M9.12016 6.72005H12.0002C12.5303 6.72005 12.9602 6.29021 12.9602 5.76005C12.9602 5.22989 12.5303 4.80005 12.0002 4.80005H9.12016C8.59 4.80005 8.16016 5.22989 8.16016 5.76005C8.16016 6.29021 8.59 6.72005 9.12016 6.72005Z" fill="#E4E4E4"/>
<path d="M46.5586 45.1199V47.9999C46.5586 48.5301 46.9884 48.9599 47.5186 48.9599C48.0488 48.9599 48.4786 48.5301 48.4786 47.9999V45.1199C48.4786 44.5898 48.0488 44.1599 47.5186 44.1599C46.9884 44.1599 46.5586 44.5898 46.5586 45.1199Z" fill="#E4E4E4"/>
<path d="M47.5186 50.8799C46.9884 50.8799 46.5586 51.3097 46.5586 51.8399V54.7199C46.5586 55.25 46.9884 55.6799 47.5186 55.6799C48.0488 55.6799 48.4786 55.25 48.4786 54.7199V51.8399C48.4786 51.3097 48.0488 50.8799 47.5186 50.8799Z" fill="#E4E4E4"/>
<path d="M45.5998 48.96H42.7198C42.1896 48.96 41.7598 49.3898 41.7598 49.92C41.7598 50.4501 42.1896 50.88 42.7198 50.88H45.5998C46.1299 50.88 46.5598 50.4501 46.5598 49.92C46.5598 49.3898 46.1299 48.96 45.5998 48.96Z" fill="#E4E4E4"/>
<path d="M52.3185 48.96H49.4385C48.9084 48.96 48.4785 49.3898 48.4785 49.92C48.4785 50.4501 48.9084 50.88 49.4385 50.88H52.3185C52.8487 50.88 53.2785 50.4501 53.2785 49.92C53.2785 49.3898 52.8487 48.96 52.3185 48.96Z" fill="#E4E4E4"/>
<path d="M19.1998 20.1599C21.0526 20.1599 22.5598 18.6527 22.5598 16.7999C22.5598 14.9471 21.0526 13.4399 19.1998 13.4399C17.347 13.4399 15.8398 14.9471 15.8398 16.7999C15.8398 18.6527 17.347 20.1599 19.1998 20.1599ZM19.1998 15.3599C19.994 15.3599 20.6398 16.0058 20.6398 16.7999C20.6398 17.5941 19.994 18.2399 19.1998 18.2399C18.4057 18.2399 17.7598 17.5941 17.7598 16.7999C17.7598 16.0058 18.4057 15.3599 19.1998 15.3599Z" fill="#E4E4E4"/>
<path d="M4.79945 48.96C2.94665 48.96 1.43945 50.4672 1.43945 52.32C1.43945 54.1728 2.94665 55.68 4.79945 55.68C6.65225 55.68 8.15945 54.1728 8.15945 52.32C8.15945 50.4672 6.65225 48.96 4.79945 48.96ZM4.79945 53.76C4.00529 53.76 3.35945 53.1141 3.35945 52.32C3.35945 51.5258 4.00529 50.88 4.79945 50.88C5.59361 50.88 6.23945 51.5258 6.23945 52.32C6.23945 53.1141 5.59361 53.76 4.79945 53.76Z" fill="#E4E4E4"/>
<path d="M20.6397 2.87996C21.1699 2.87996 21.5997 2.45015 21.5997 1.91996C21.5997 1.38977 21.1699 0.959961 20.6397 0.959961C20.1095 0.959961 19.6797 1.38977 19.6797 1.91996C19.6797 2.45015 20.1095 2.87996 20.6397 2.87996Z" fill="#E4E4E4"/>
<path d="M3.36039 23.0401C3.89058 23.0401 4.32039 22.6103 4.32039 22.0801C4.32039 21.5499 3.89058 21.1201 3.36039 21.1201C2.8302 21.1201 2.40039 21.5499 2.40039 22.0801C2.40039 22.6103 2.8302 23.0401 3.36039 23.0401Z" fill="#E4E4E4"/>
<path d="M14.8799 52.7999C15.4101 52.7999 15.8399 52.3701 15.8399 51.8399C15.8399 51.3097 15.4101 50.8799 14.8799 50.8799C14.3497 50.8799 13.9199 51.3097 13.9199 51.8399C13.9199 52.3701 14.3497 52.7999 14.8799 52.7999Z" fill="#E4E4E4"/>
<path d="M50.3995 6.72005C50.9297 6.72005 51.3595 6.29024 51.3595 5.76005C51.3595 5.22986 50.9297 4.80005 50.3995 4.80005C49.8693 4.80005 49.4395 5.22986 49.4395 5.76005C49.4395 6.29024 49.8693 6.72005 50.3995 6.72005Z" fill="#E4E4E4"/>
</svg>
