<svg width="86" height="30" viewBox="0 0 86 30" fill="none" xmlns="http://www.w3.org/2000/svg">
<path d="M1.3913 6.967C1.37356 6.76396 1.33806 6.58629 1.28482 6.43401C1.24933 6.25635 1.20496 6.06599 1.15172 5.86294C1.06299 5.55838 0.98313 5.22843 0.912144 4.8731C0.841157 4.51777 0.805664 4.09898 0.805664 3.61675C0.841157 3.36294 0.885524 3.18528 0.938764 3.08376C0.992004 2.95685 1.04524 2.85533 1.09848 2.77919L1.20496 2.09391H1.60426C1.74623 2.11929 1.88821 2.13198 2.03018 2.13198C2.1899 2.13198 2.34075 2.13198 2.48272 2.13198C3.15709 2.13198 3.84921 2.09391 4.55907 2.01777C5.26894 1.94162 5.99655 1.85279 6.74191 1.75127C7.55825 1.59898 8.43671 1.48477 9.37728 1.40863C9.46601 1.12944 9.51925 0.951777 9.537 0.875634C9.57249 0.799492 9.60799 0.71066 9.64348 0.609137L9.9363 0.380711C10.3445 0.35533 10.6284 0.431472 10.7881 0.609137C10.9479 0.761421 11.0721 0.913706 11.1608 1.06599C11.6222 1.01523 12.0925 0.951777 12.5717 0.875634C13.0508 0.774112 13.5477 0.672589 14.0624 0.571066C14.7723 0.444162 15.491 0.317259 16.2186 0.190355C16.9462 0.0634518 17.6561 0 18.3482 0C18.6499 0 18.9338 0.0126904 19.2 0.0380711C19.4662 0.0634518 19.7236 0.101523 19.972 0.152284L20.2914 0.494924C20.3624 0.672589 20.4512 0.837563 20.5576 0.989848C20.6641 1.14213 20.7884 1.29442 20.9303 1.4467C21.1965 1.75127 21.4539 2.13198 21.7023 2.58883C21.9685 3.04569 22.0661 3.71827 21.9951 4.6066L21.862 4.98731C21.791 5.08883 21.7023 5.19036 21.5958 5.29188L21.3296 5.7868H21.0368C20.8593 5.7868 20.7262 5.81218 20.6375 5.86294C20.5488 5.88832 20.4423 5.93909 20.3181 6.01523C20.2471 6.06599 20.1672 6.11675 20.0785 6.16751C19.9898 6.19289 19.8921 6.23096 19.7857 6.28173C19.5905 6.25635 19.4396 6.24365 19.3331 6.24365C19.2267 6.24365 19.1024 6.24365 18.9605 6.24365C18.4281 6.24365 17.8513 6.29442 17.2302 6.39594C16.609 6.49746 16.0056 6.61167 15.42 6.73858C14.9941 6.81472 14.5859 6.89086 14.1955 6.967C13.8051 7.01777 13.4501 7.06853 13.1307 7.11929C12.9532 7.77919 12.7935 8.36294 12.6515 8.87056C12.5096 9.37817 12.3587 9.88579 12.199 10.3934C12.0393 10.901 11.8884 11.4213 11.7465 11.9543C11.6045 12.4619 11.4714 13.033 11.3472 13.6675C11.1342 14.1244 10.9567 14.5685 10.8148 15C10.6728 15.4061 10.5574 15.8756 10.4687 16.4086C10.2025 16.8401 10.0073 17.3096 9.88306 17.8173C9.77658 18.3249 9.67897 18.7563 9.59024 19.1117L9.48376 19.6827C9.35953 19.8604 9.27967 20 9.24418 20.1015C9.22643 20.203 9.18207 20.3173 9.11108 20.4442C9.05784 20.7741 8.98685 21.0914 8.89812 21.3959C8.86263 21.5228 8.82713 21.6624 8.79164 21.8147C8.75615 21.9416 8.74727 22.0431 8.76502 22.1193C8.72953 22.3985 8.67629 22.6142 8.6053 22.7665C8.6053 22.9188 8.59643 23.0711 8.57868 23.2234C8.56094 23.3756 8.54319 23.5279 8.52544 23.6802C8.48995 23.8579 8.46333 24.0228 8.44558 24.1751C8.42784 24.302 8.43671 24.4289 8.4722 24.5558C8.52544 24.6574 8.57868 24.7589 8.63192 24.8604C8.68516 24.9619 8.72953 25.0888 8.76502 25.2411C8.80051 25.2919 8.84488 25.3299 8.89812 25.3553C8.95136 25.3807 8.99573 25.4188 9.03122 25.4695C9.17319 25.6472 9.30629 25.7487 9.43052 25.7741L9.69672 26.231C9.8032 27.1447 9.70559 27.8553 9.4039 28.3629C9.08446 28.9467 8.55206 29.2386 7.8067 29.2386L7.43403 29.2005C7.3098 29.0228 7.23881 28.9086 7.22107 28.8579C7.06135 28.7563 6.92825 28.6675 6.82177 28.5914C6.71529 28.5406 6.61768 28.4264 6.52895 28.2487C6.49345 28.198 6.44909 28.1726 6.39585 28.1726C6.34261 28.1472 6.29824 28.1091 6.26275 28.0584C6.08528 27.9822 5.94331 27.8934 5.83683 27.7919L5.54401 27.5635C5.56176 27.3096 5.57063 27.132 5.57063 27.0305C5.42866 26.7513 5.3133 26.4467 5.22457 26.1168C5.15358 25.7868 5.09147 25.4442 5.03823 25.0888C4.98499 24.8096 4.93175 24.5558 4.87851 24.3274C4.84302 24.099 4.78091 23.8959 4.69217 23.7183C4.65668 21.9416 4.77203 20.4569 5.03823 19.264C5.30443 18.0457 5.59725 16.8655 5.91669 15.7233C6.09416 15.1142 6.26275 14.4924 6.42247 13.8579C6.58219 13.2233 6.72416 12.5761 6.84839 11.9162L7.14121 11.4975C7.26543 11.3452 7.34529 11.2563 7.38079 11.231C7.38079 10.901 7.42515 10.5838 7.51389 10.2792C7.60262 9.94924 7.70022 9.61929 7.8067 9.28934C7.87769 9.08629 7.9398 8.88325 7.99304 8.6802C8.06403 8.47716 8.1084 8.29949 8.12614 8.14721C8.00192 8.14721 7.88656 8.1599 7.78008 8.18528C7.69135 8.18528 7.59374 8.19797 7.48727 8.22335C7.25656 8.29949 7.03473 8.33756 6.82177 8.33756C6.66205 8.33756 6.54669 8.32487 6.47571 8.29949C6.33373 8.40102 6.20064 8.46447 6.07641 8.48985C5.95218 8.48985 5.82796 8.48985 5.70373 8.48985H5.38429H5.06485C4.85189 8.48985 4.6833 8.52792 4.55907 8.60406C4.31062 8.60406 4.1509 8.60406 4.07991 8.60406C4.00893 8.60406 3.92907 8.60406 3.84034 8.60406H3.5209H3.20146C3.05948 8.60406 2.89976 8.59137 2.7223 8.56599C2.54483 8.51523 2.35849 8.41371 2.16328 8.26142L1.97694 7.95685C1.87046 7.67766 1.77285 7.52538 1.68412 7.5L1.3913 7.38579V6.967Z" fill="#333333"/>
<path d="M15.3135 24.8223L15.6596 24.4416L15.6862 23.6421C16.1299 22.0939 16.5824 20.6091 17.0438 19.1878C17.523 17.7665 18.0199 16.3071 18.5345 14.8096C18.6943 14.3274 18.854 13.8452 19.0137 13.3629C19.1912 12.8807 19.3598 12.3858 19.5195 11.8782C19.5017 11.7766 19.4929 11.6751 19.4929 11.5736C19.4929 11.4467 19.5106 11.3071 19.5461 11.1548C19.7945 10.6472 19.9898 10.1904 20.1317 9.78426C20.2914 9.37817 20.4423 8.95939 20.5843 8.52792C20.744 8.0203 20.9126 7.51269 21.09 7.00508C21.2853 6.49746 21.5248 6.00254 21.8088 5.5203L21.9951 5.13959L22.2879 5.17766C22.3589 5.1269 22.4299 5.08883 22.5009 5.06345C22.5896 5.01269 22.6961 4.98731 22.8203 4.98731L23.2995 5.10152C23.8851 4.72081 24.3998 4.17513 24.8435 3.46447C25.3049 2.72843 25.7663 1.85279 26.2277 0.837563L26.5471 0.190355L26.973 0.571066C27.0618 0.647208 27.2038 0.72335 27.399 0.799492C27.5942 0.875634 27.7983 0.964467 28.0112 1.06599C28.3839 1.19289 28.7477 1.34518 29.1026 1.52284C29.4576 1.67513 29.7326 1.89086 29.9279 2.17005L30.061 2.51269C30.0965 2.79188 30.1231 3.04569 30.1408 3.27411C30.1763 3.50254 30.2118 3.73096 30.2473 3.95939C30.3183 4.49239 30.3804 5.02538 30.4336 5.55838C30.4869 6.06599 30.5224 6.63706 30.5401 7.27157C30.6289 7.77919 30.7087 8.29949 30.7797 8.83249C30.8684 9.3401 30.9483 9.84772 31.0193 10.3553C31.108 11.0914 31.2056 11.802 31.3121 12.4873C31.4186 13.1472 31.5606 13.7817 31.738 14.3909C31.9155 14.3909 32.022 14.4036 32.0575 14.4289C32.2704 14.302 32.5189 14.2259 32.8028 14.2005L33.1489 14.1624L33.2554 14.6193C33.2908 14.6954 33.3352 14.7716 33.3885 14.8477C33.4417 14.9239 33.5038 15 33.5748 15.0761C33.8587 15.1015 34.0628 15.1904 34.187 15.3426C34.329 15.4695 34.4444 15.5964 34.5331 15.7233C34.5686 15.7741 34.613 15.8376 34.6662 15.9137C34.7194 15.9645 34.7638 16.0025 34.7993 16.0279L35.2785 16.2944L35.0123 17.0178C34.8171 17.5508 34.5154 18.0711 34.1072 18.5787C33.7168 19.0863 33.2731 19.5051 32.7762 19.835C32.8117 20.0127 32.8294 20.1777 32.8294 20.3299C32.8472 20.4822 32.8738 20.6599 32.9093 20.8629C32.9803 21.3706 33.0335 21.9036 33.069 22.4619C33.1223 22.9949 33.1223 23.5533 33.069 24.1371C32.8915 24.797 32.6786 25.3934 32.4301 25.9264C32.1994 26.434 31.9155 26.9036 31.5783 27.335C31.2589 27.7411 30.8951 28.0838 30.4869 28.3629C30.0787 28.6168 29.6528 28.7563 29.2091 28.7817C28.9607 28.7056 28.7743 28.6168 28.6501 28.5152C28.5436 28.4137 28.446 28.3122 28.3573 28.2107C28.2153 28.0584 28.1 27.9569 28.0112 27.9061L27.6652 27.6777L27.7716 27.1066C27.8249 26.9036 27.816 26.7259 27.745 26.5736C27.6918 26.4213 27.5676 26.2183 27.3723 25.9645C27.3014 25.8883 27.2392 25.8122 27.186 25.736C27.1328 25.6345 27.0707 25.533 26.9997 25.4315L26.4673 24.5558L27.3457 24.2132C27.8781 24.0102 28.2331 23.7563 28.4105 23.4518C28.588 23.1218 28.659 22.5508 28.6235 21.7386C28.1798 21.6117 27.816 21.599 27.5321 21.7005C27.2481 21.7766 26.9642 21.8655 26.6802 21.967C26.2721 22.1193 25.8728 22.2589 25.4823 22.3858C25.0919 22.4873 24.666 22.5381 24.2046 22.5381C23.9029 22.5381 23.5834 22.5 23.2463 22.4239L22.9534 22.3858L22.8736 21.967C22.8736 21.9162 22.847 21.8655 22.7937 21.8147C22.7582 21.7386 22.7227 21.6751 22.6872 21.6244C22.5985 21.4721 22.492 21.269 22.3678 21.0152C22.2436 20.7614 22.217 20.4442 22.2879 20.0635C22.1637 19.7843 22.0927 19.4924 22.075 19.1878C22.004 19.3909 21.9419 19.5939 21.8886 19.797C21.8532 19.9746 21.8177 20.1523 21.7822 20.3299L21.6757 20.8249L21.3296 20.901C21.2941 20.9518 21.2586 21.0279 21.2231 21.1294C21.2054 21.231 21.2054 21.3071 21.2231 21.3579L21.3296 21.7766L21.0634 22.1193C21.0279 22.1954 20.9836 22.2589 20.9303 22.3096C20.8771 22.3604 20.8327 22.4112 20.7972 22.4619C20.7617 22.7411 20.7085 23.0076 20.6375 23.2614C20.5843 23.5152 20.5222 23.769 20.4512 24.0228C20.3624 24.4289 20.2737 24.8223 20.185 25.203C20.114 25.5838 20.0785 25.9645 20.0785 26.3452L19.972 26.8401C19.8833 27.0431 19.7679 27.1954 19.6259 27.297C19.5017 27.3985 19.3775 27.4873 19.2533 27.5635C19.0758 27.665 18.9516 27.7665 18.8806 27.868L18.8007 28.3629L18.4014 28.4391C18.1707 28.5152 18.0021 28.566 17.8957 28.5914C17.8069 28.6168 17.7004 28.6294 17.5762 28.6294L17.2302 28.5914C17.0172 28.2868 16.8397 28.0584 16.6978 27.9061C16.5735 27.7284 16.4227 27.5761 16.2452 27.4492L16.0855 27.1447C16.0145 26.9416 15.9701 26.764 15.9524 26.6117C15.9347 26.434 15.908 26.2563 15.8725 26.0787C15.837 25.7487 15.7838 25.5203 15.7128 25.3934L15.3135 24.8223ZM23.8053 14.9239C23.5568 15.4315 23.3172 15.9645 23.0865 16.5228C23.2108 16.4975 23.3261 16.4848 23.4326 16.4848C23.5568 16.4848 23.6811 16.4721 23.8053 16.4467C24.4264 16.3959 25.0032 16.3325 25.5356 16.2563C26.068 16.1802 26.6447 16.0533 27.2659 15.8756C27.1239 14.9365 26.9642 13.9848 26.7867 13.0203C26.627 12.0305 26.4495 11.0406 26.2543 10.0508L26.1212 10.4315C25.6775 11.1168 25.2516 11.8528 24.8435 12.6396C24.4353 13.4264 24.0981 14.1751 23.8319 14.8858L23.8053 14.9239Z" fill="#333333"/>
<path d="M34.3734 6.967C34.3556 6.76396 34.3201 6.58629 34.2669 6.43401C34.2314 6.25635 34.187 6.06599 34.1338 5.86294C34.0451 5.55838 33.9652 5.22843 33.8942 4.8731C33.8232 4.51777 33.7878 4.09898 33.7878 3.61675C33.8232 3.36294 33.8676 3.18528 33.9208 3.08376C33.9741 2.95685 34.0273 2.85533 34.0806 2.77919L34.187 2.09391H34.5863C34.7283 2.11929 34.8703 2.13198 35.0123 2.13198C35.172 2.13198 35.3228 2.13198 35.4648 2.13198C36.1392 2.13198 36.8313 2.09391 37.5412 2.01777C38.251 1.94162 38.9786 1.85279 39.724 1.75127C40.5403 1.59898 41.4188 1.48477 42.3594 1.40863C42.4481 1.12944 42.5013 0.951777 42.5191 0.875634C42.5546 0.799492 42.5901 0.71066 42.6256 0.609137L42.9184 0.380711C43.3266 0.35533 43.6105 0.431472 43.7702 0.609137C43.9299 0.761421 44.0542 0.913706 44.1429 1.06599C44.6043 1.01523 45.0746 0.951777 45.5538 0.875634C46.0329 0.774112 46.5298 0.672589 47.0445 0.571066C47.7543 0.444162 48.4731 0.317259 49.2007 0.190355C49.9283 0.0634518 50.6382 0 51.3303 0C51.632 0 51.9159 0.0126904 52.1821 0.0380711C52.4483 0.0634518 52.7056 0.101523 52.9541 0.152284L53.2735 0.494924C53.3445 0.672589 53.4333 0.837563 53.5397 0.989848C53.6462 1.14213 53.7704 1.29442 53.9124 1.4467C54.1786 1.75127 54.4359 2.13198 54.6844 2.58883C54.9506 3.04569 55.0482 3.71827 54.9772 4.6066L54.8441 4.98731C54.7731 5.08883 54.6844 5.19036 54.5779 5.29188L54.3117 5.7868H54.0189C53.8414 5.7868 53.7083 5.81218 53.6196 5.86294C53.5309 5.88832 53.4244 5.93909 53.3002 6.01523C53.2292 6.06599 53.1493 6.11675 53.0606 6.16751C52.9718 6.19289 52.8742 6.23096 52.7678 6.28173C52.5725 6.25635 52.4217 6.24365 52.3152 6.24365C52.2087 6.24365 52.0845 6.24365 51.9425 6.24365C51.4101 6.24365 50.8334 6.29442 50.2122 6.39594C49.5911 6.49746 48.9877 6.61167 48.4021 6.73858C47.9762 6.81472 47.568 6.89086 47.1776 6.967C46.7871 7.01777 46.4322 7.06853 46.1128 7.11929C45.9353 7.77919 45.7756 8.36294 45.6336 8.87056C45.4916 9.37817 45.3408 9.88579 45.1811 10.3934C45.0214 10.901 44.8705 11.4213 44.7285 11.9543C44.5866 12.4619 44.4535 13.033 44.3292 13.6675C44.1163 14.1244 43.9388 14.5685 43.7968 15C43.6549 15.4061 43.5395 15.8756 43.4508 16.4086C43.1846 16.8401 42.9894 17.3096 42.8651 17.8173C42.7587 18.3249 42.6611 18.7563 42.5723 19.1117L42.4658 19.6827C42.3416 19.8604 42.2618 20 42.2263 20.1015C42.2085 20.203 42.1642 20.3173 42.0932 20.4442C42.0399 20.7741 41.9689 21.0914 41.8802 21.3959C41.8447 21.5228 41.8092 21.6624 41.7737 21.8147C41.7382 21.9416 41.7294 22.0431 41.7471 22.1193C41.7116 22.3985 41.6584 22.6142 41.5874 22.7665C41.5874 22.9188 41.5785 23.0711 41.5608 23.2234C41.543 23.3756 41.5253 23.5279 41.5075 23.6802C41.472 23.8579 41.4454 24.0228 41.4277 24.1751C41.4099 24.302 41.4188 24.4289 41.4543 24.5558C41.5075 24.6574 41.5608 24.7589 41.614 24.8604C41.6672 24.9619 41.7116 25.0888 41.7471 25.2411C41.7826 25.2919 41.827 25.3299 41.8802 25.3553C41.9334 25.3807 41.9778 25.4188 42.0133 25.4695C42.1553 25.6472 42.2884 25.7487 42.4126 25.7741L42.6788 26.231C42.7853 27.1447 42.6877 27.8553 42.386 28.3629C42.0665 28.9467 41.5341 29.2386 40.7888 29.2386L40.4161 29.2005C40.2919 29.0228 40.2209 28.9086 40.2032 28.8579C40.0434 28.7563 39.9103 28.6675 39.8039 28.5914C39.6974 28.5406 39.5998 28.4264 39.511 28.2487C39.4755 28.198 39.4312 28.1726 39.3779 28.1726C39.3247 28.1472 39.2803 28.1091 39.2448 28.0584C39.0674 27.9822 38.9254 27.8934 38.8189 27.7919L38.5261 27.5635C38.5438 27.3096 38.5527 27.132 38.5527 27.0305C38.4107 26.7513 38.2954 26.4467 38.2067 26.1168C38.1357 25.7868 38.0736 25.4442 38.0203 25.0888C37.9671 24.8096 37.9138 24.5558 37.8606 24.3274C37.8251 24.099 37.763 23.8959 37.6743 23.7183C37.6388 21.9416 37.7541 20.4569 38.0203 19.264C38.2865 18.0457 38.5793 16.8655 38.8988 15.7233C39.0762 15.1142 39.2448 14.4924 39.4046 13.8579C39.5643 13.2233 39.7062 12.5761 39.8305 11.9162L40.1233 11.4975C40.2475 11.3452 40.3274 11.2563 40.3629 11.231C40.3629 10.901 40.4072 10.5838 40.496 10.2792C40.5847 9.94924 40.6823 9.61929 40.7888 9.28934C40.8598 9.08629 40.9219 8.88325 40.9751 8.6802C41.0461 8.47716 41.0905 8.29949 41.1082 8.14721C40.984 8.14721 40.8686 8.1599 40.7622 8.18528C40.6734 8.18528 40.5758 8.19797 40.4694 8.22335C40.2386 8.29949 40.0168 8.33756 39.8039 8.33756C39.6441 8.33756 39.5288 8.32487 39.4578 8.29949C39.3158 8.40102 39.1827 8.46447 39.0585 8.48985C38.9343 8.48985 38.81 8.48985 38.6858 8.48985H38.3664H38.0469C37.834 8.48985 37.6654 8.52792 37.5412 8.60406C37.2927 8.60406 37.133 8.60406 37.062 8.60406C36.991 8.60406 36.9112 8.60406 36.8224 8.60406H36.503H36.1835C36.0416 8.60406 35.8819 8.59137 35.7044 8.56599C35.5269 8.51523 35.3406 8.41371 35.1454 8.26142L34.959 7.95685C34.8525 7.67766 34.7549 7.52538 34.6662 7.5L34.3734 7.38579V6.967Z" fill="#333333"/>
<path d="M50.931 6.967C50.9132 6.76396 50.8777 6.58629 50.8245 6.43401C50.789 6.25635 50.7446 6.06599 50.6914 5.86294C50.6027 5.55838 50.5228 5.22843 50.4518 4.8731C50.3808 4.51777 50.3453 4.09898 50.3453 3.61675C50.3808 3.36294 50.4252 3.18528 50.4784 3.08376C50.5317 2.95685 50.5849 2.85533 50.6382 2.77919L50.7446 2.09391H51.1439C51.2859 2.11929 51.4279 2.13198 51.5699 2.13198C51.7296 2.13198 51.8804 2.13198 52.0224 2.13198C52.6968 2.13198 53.3889 2.09391 54.0988 2.01777C54.8086 1.94162 55.5362 1.85279 56.2816 1.75127C57.0979 1.59898 57.9764 1.48477 58.917 1.40863C59.0057 1.12944 59.0589 0.951777 59.0767 0.875634C59.1122 0.799492 59.1477 0.71066 59.1832 0.609137L59.476 0.380711C59.8841 0.35533 60.1681 0.431472 60.3278 0.609137C60.4875 0.761421 60.6118 0.913706 60.7005 1.06599C61.1619 1.01523 61.6322 0.951777 62.1114 0.875634C62.5905 0.774112 63.0874 0.672589 63.6021 0.571066C64.3119 0.444162 65.0307 0.317259 65.7583 0.190355C66.4859 0.0634518 67.1958 0 67.8879 0C68.1896 0 68.4735 0.0126904 68.7397 0.0380711C69.0059 0.0634518 69.2632 0.101523 69.5117 0.152284L69.8311 0.494924C69.9021 0.672589 69.9908 0.837563 70.0973 0.989848C70.2038 1.14213 70.328 1.29442 70.47 1.4467C70.7362 1.75127 70.9935 2.13198 71.242 2.58883C71.5082 3.04569 71.6058 3.71827 71.5348 4.6066L71.4017 4.98731C71.3307 5.08883 71.242 5.19036 71.1355 5.29188L70.8693 5.7868H70.5765C70.399 5.7868 70.2659 5.81218 70.1772 5.86294C70.0885 5.88832 69.982 5.93909 69.8577 6.01523C69.7868 6.06599 69.7069 6.11675 69.6182 6.16751C69.5294 6.19289 69.4318 6.23096 69.3253 6.28173C69.1301 6.25635 68.9793 6.24365 68.8728 6.24365C68.7663 6.24365 68.6421 6.24365 68.5001 6.24365C67.9677 6.24365 67.391 6.29442 66.7698 6.39594C66.1487 6.49746 65.5453 6.61167 64.9597 6.73858C64.5338 6.81472 64.1256 6.89086 63.7352 6.967C63.3447 7.01777 62.9898 7.06853 62.6704 7.11929C62.4929 7.77919 62.3332 8.36294 62.1912 8.87056C62.0492 9.37817 61.8984 9.88579 61.7387 10.3934C61.579 10.901 61.4281 11.4213 61.2861 11.9543C61.1442 12.4619 61.0111 13.033 60.8868 13.6675C60.6739 14.1244 60.4964 14.5685 60.3544 15C60.2125 15.4061 60.0971 15.8756 60.0084 16.4086C59.7422 16.8401 59.547 17.3096 59.4227 17.8173C59.3163 18.3249 59.2187 18.7563 59.1299 19.1117L59.0234 19.6827C58.8992 19.8604 58.8194 20 58.7839 20.1015C58.7661 20.203 58.7217 20.3173 58.6508 20.4442C58.5975 20.7741 58.5265 21.0914 58.4378 21.3959C58.4023 21.5228 58.3668 21.6624 58.3313 21.8147C58.2958 21.9416 58.287 22.0431 58.3047 22.1193C58.2692 22.3985 58.216 22.6142 58.145 22.7665C58.145 22.9188 58.1361 23.0711 58.1184 23.2234C58.1006 23.3756 58.0829 23.5279 58.0651 23.6802C58.0296 23.8579 58.003 24.0228 57.9853 24.1751C57.9675 24.302 57.9764 24.4289 58.0119 24.5558C58.0651 24.6574 58.1184 24.7589 58.1716 24.8604C58.2248 24.9619 58.2692 25.0888 58.3047 25.2411C58.3402 25.2919 58.3846 25.3299 58.4378 25.3553C58.491 25.3807 58.5354 25.4188 58.5709 25.4695C58.7129 25.6472 58.846 25.7487 58.9702 25.7741L59.2364 26.231C59.3429 27.1447 59.2453 27.8553 58.9436 28.3629C58.6241 28.9467 58.0917 29.2386 57.3464 29.2386L56.9737 29.2005C56.8495 29.0228 56.7785 28.9086 56.7607 28.8579C56.601 28.7563 56.4679 28.6675 56.3614 28.5914C56.255 28.5406 56.1574 28.4264 56.0686 28.2487C56.0331 28.198 55.9888 28.1726 55.9355 28.1726C55.8823 28.1472 55.8379 28.1091 55.8024 28.0584C55.625 27.9822 55.483 27.8934 55.3765 27.7919L55.0837 27.5635C55.1014 27.3096 55.1103 27.132 55.1103 27.0305C54.9683 26.7513 54.853 26.4467 54.7643 26.1168C54.6933 25.7868 54.6311 25.4442 54.5779 25.0888C54.5247 24.8096 54.4714 24.5558 54.4182 24.3274C54.3827 24.099 54.3206 23.8959 54.2319 23.7183C54.1964 21.9416 54.3117 20.4569 54.5779 19.264C54.8441 18.0457 55.1369 16.8655 55.4564 15.7233C55.6338 15.1142 55.8024 14.4924 55.9621 13.8579C56.1219 13.2233 56.2638 12.5761 56.3881 11.9162L56.6809 11.4975C56.8051 11.3452 56.885 11.2563 56.9205 11.231C56.9205 10.901 56.9648 10.5838 57.0536 10.2792C57.1423 9.94924 57.2399 9.61929 57.3464 9.28934C57.4174 9.08629 57.4795 8.88325 57.5327 8.6802C57.6037 8.47716 57.6481 8.29949 57.6658 8.14721C57.5416 8.14721 57.4262 8.1599 57.3198 8.18528C57.231 8.18528 57.1334 8.19797 57.0269 8.22335C56.7962 8.29949 56.5744 8.33756 56.3614 8.33756C56.2017 8.33756 56.0864 8.32487 56.0154 8.29949C55.8734 8.40102 55.7403 8.46447 55.6161 8.48985C55.4919 8.48985 55.3676 8.48985 55.2434 8.48985H54.924H54.6045C54.3916 8.48985 54.223 8.52792 54.0988 8.60406C53.8503 8.60406 53.6906 8.60406 53.6196 8.60406C53.5486 8.60406 53.4687 8.60406 53.38 8.60406H53.0606H52.7411C52.5992 8.60406 52.4394 8.59137 52.262 8.56599C52.0845 8.51523 51.8982 8.41371 51.703 8.26142L51.5166 7.95685C51.4101 7.67766 51.3125 7.52538 51.2238 7.5L50.931 7.38579V6.967Z" fill="#333333"/>
<path d="M66.69 25.0888C66.6367 24.3274 66.6279 23.6421 66.6634 23.033C66.6811 22.4239 66.7432 21.8401 66.8497 21.2817C66.9384 20.7234 67.0627 20.1904 67.2224 19.6827C67.3998 19.1751 67.5951 18.6294 67.808 18.0457C68.0565 17.9188 68.2783 17.7538 68.4735 17.5508C68.6687 17.3223 68.8551 17.1066 69.0325 16.9036C69.21 16.6751 69.3786 16.4848 69.5383 16.3325C69.7158 16.1548 69.8844 16.0533 70.0441 16.0279L70.3103 15.7995C70.6652 15.2157 71.1 14.6827 71.6147 14.2005C72.1293 13.6929 72.6617 13.2107 73.2119 12.7538C73.6733 12.3731 74.1258 11.9924 74.5695 11.6117C75.0131 11.2056 75.4213 10.7487 75.794 10.2411C75.9715 10.2665 76.1223 10.2157 76.2465 10.0888C76.3353 9.91117 76.3708 9.72081 76.353 9.51777C76.4062 9.467 76.4506 9.41624 76.4861 9.36548C76.5393 9.28934 76.5926 9.22589 76.6458 9.17513C76.7878 8.99746 76.983 8.8198 77.2315 8.64213C77.4977 8.43909 77.6751 8.17259 77.7639 7.84264L78.456 6.89086L77.4977 6.92893C77.0185 6.92893 76.5039 6.967 75.9537 7.04315C75.4213 7.11929 74.9599 7.18274 74.5695 7.2335C74.25 7.28426 73.9217 7.32233 73.5845 7.34772C73.2651 7.3731 72.9013 7.39848 72.4931 7.42386C72.1559 7.11929 71.8631 6.72589 71.6147 6.24365C71.384 5.76142 71.1976 5.24112 71.0556 4.68274C70.9314 4.12437 70.8604 3.54061 70.8427 2.93147C70.8249 2.32234 70.8782 1.73858 71.0024 1.1802C71.1444 1.12944 71.2686 1.07868 71.3751 1.02792C71.4993 0.951777 71.6147 0.875634 71.7211 0.799492C71.9164 0.774112 72.0406 0.774112 72.0938 0.799492C72.1648 0.824873 72.2447 0.837563 72.3334 0.837563C73.3982 0.583756 74.2678 0.456853 74.9422 0.456853C75.6875 0.456853 76.3619 0.583756 76.9653 0.837563C77.7106 0.837563 78.4649 0.799492 79.228 0.72335C80.0088 0.647208 80.7985 0.71066 81.5971 0.913706C82.165 0.659898 82.7329 0.596447 83.3008 0.72335C83.8687 0.824873 84.3567 1.1802 84.7649 1.78934C84.8004 2.29695 84.898 2.69036 85.0577 2.96954C85.2174 3.22335 85.4304 3.41371 85.6966 3.54061C85.8563 4.42893 85.8652 5.20305 85.7232 5.86294C85.599 6.52284 85.3772 7.11929 85.0577 7.65228C84.7383 8.1599 84.3567 8.61675 83.9131 9.02284C83.4694 9.42893 83.0346 9.82234 82.6087 10.203C82.4845 10.4822 82.3336 10.7107 82.1562 10.8883C81.9787 11.066 81.8101 11.2563 81.6504 11.4594C80.9583 12.7792 80.1508 13.9086 79.228 14.8477C78.3229 15.7614 77.4001 16.6624 76.4595 17.5508C75.7851 18.2107 75.1107 18.8706 74.4364 19.5305C73.7797 20.1904 73.1409 20.901 72.5197 21.6624L72.1737 22.0812L72.4665 22.5381C72.715 22.8934 73.0166 23.0711 73.3716 23.0711C73.5668 23.0711 73.7531 23.033 73.9306 22.9569C74.1258 22.8807 74.3033 22.7919 74.463 22.6904C74.6227 22.6142 74.7647 22.5508 74.8889 22.5C75.0309 22.4239 75.1462 22.3858 75.235 22.3858L75.5278 22.4619C75.794 22.2589 76.007 22.1193 76.1667 22.0431C76.3441 21.9416 76.5216 21.8528 76.6991 21.7766C76.841 21.7259 76.9919 21.6624 77.1516 21.5863C77.3291 21.5102 77.4977 21.4086 77.6574 21.2817C78.1188 21.2817 78.5625 21.1929 78.9884 21.0152C79.4143 20.8122 79.8313 20.5964 80.2395 20.368C80.488 20.2411 80.7275 20.1142 80.9583 19.9873C81.2067 19.8604 81.4552 19.7462 81.7036 19.6447C81.7923 19.8223 81.89 19.9746 81.9964 20.1015C82.1207 20.203 82.236 20.2919 82.3425 20.368C82.5022 20.4949 82.6176 20.6091 82.6886 20.7107C82.7595 20.7868 82.8039 20.901 82.8216 21.0533L82.9281 22.3096L83.4872 21.434C83.7533 21.7893 83.8953 22.1574 83.9131 22.5381C83.9308 22.8934 83.9042 23.3629 83.8332 23.9467C83.1411 24.9365 82.2804 25.7107 81.2511 26.269C80.2395 26.8274 79.1658 27.3477 78.0301 27.8299C77.7816 27.9315 77.542 28.033 77.3113 28.1345C77.0806 28.2107 76.841 28.3122 76.5926 28.4391L76.6192 27.6396L75.9271 28.2868C75.8384 28.3883 75.7674 28.4772 75.7141 28.5533C75.6609 28.6548 75.6077 28.7563 75.5544 28.8579C75.0043 29.0355 74.5429 29.1751 74.1702 29.2766C73.8152 29.3782 73.4781 29.4797 73.1586 29.5812C72.8037 29.7081 72.4665 29.8096 72.1471 29.8858C71.8454 29.9619 71.5082 30 71.1355 30C71.0113 30 70.8871 29.9873 70.7628 29.9619C70.6563 29.9619 70.541 29.9492 70.4168 29.9239C70.3103 29.8731 70.1861 29.8223 70.0441 29.7716L69.6714 28.7817L69.1656 29.3147C68.9704 29.0863 68.7486 28.8452 68.5001 28.5914C68.2872 28.3376 68.092 28.0838 67.9145 27.8299C67.737 27.5761 67.6394 27.3223 67.6217 27.0685L67.5951 26.6117L67.2756 26.4975C67.2401 26.4467 67.2046 26.3198 67.1691 26.1168C67.1336 25.9645 67.0804 25.7868 67.0094 25.5838C66.9384 25.3807 66.8319 25.2157 66.69 25.0888Z" fill="#333333"/>
</svg>
