<svg width="12" height="16" viewBox="0 0 12 16" fill="none" xmlns="http://www.w3.org/2000/svg">
<path d="M6.05242 3.50635C4.92482 3.50635 4.00702 4.42415 4.00702 5.55175C4.00702 6.67935 4.92482 7.59715 6.05242 7.59715C7.18002 7.59715 8.09782 6.67935 8.09782 5.55175C8.09782 4.42415 7.18002 3.50635 6.05242 3.50635ZM6.05242 7.01275C5.24682 7.01275 4.59142 6.35734 4.59142 5.55175C4.59142 4.74615 5.24682 4.09075 6.05242 4.09075C6.85802 4.09075 7.51342 4.74615 7.51342 5.55175C7.51342 6.35734 6.85802 7.01275 6.05242 7.01275Z" fill="black"/>
<path d="M9.96304 1.64129C8.90469 0.582939 7.49746 0 6.00081 0C4.50387 0 3.09692 0.582939 2.03857 1.64129C0.0799573 3.59961 -0.163445 7.28426 1.51145 9.51666L6.00081 16L10.4834 9.52572C12.1651 7.28426 11.9217 3.59961 9.96304 1.64129ZM10.0095 9.18414L6.00081 14.9732L1.98569 9.17508C0.466538 7.14955 0.684227 3.82198 2.45204 2.05446C3.39993 1.10656 4.66019 0.5844 6.00081 0.5844C7.34142 0.5844 8.60168 1.10656 9.54987 2.05446C11.3177 3.82198 11.5354 7.14955 10.0095 9.18414Z" fill="black"/>
</svg>
