<svg width="16" height="16" viewBox="0 0 16 16" fill="none" xmlns="http://www.w3.org/2000/svg">
<path d="M15.8605 15.184L11.9722 11.2958C13.0153 10.0967 13.6468 8.53215 13.6468 6.82217C13.6468 3.05809 10.5851 0 6.82458 0C3.0605 0 0.00240326 3.06164 0.00240326 6.82217C0.00240326 10.5827 3.06404 13.6443 6.82458 13.6443C8.53456 13.6443 10.0991 13.0129 11.2982 11.9698L15.1864 15.8581C15.2787 15.9503 15.4028 16 15.5235 16C15.6441 16 15.7683 15.9539 15.8605 15.8581C16.045 15.6736 16.045 15.3685 15.8605 15.184ZM0.956727 6.82217C0.956727 3.5867 3.5891 0.957871 6.82103 0.957871C10.0565 0.957871 12.6853 3.59024 12.6853 6.82217C12.6853 10.0541 10.0565 12.69 6.82103 12.69C3.5891 12.69 0.956727 10.0576 0.956727 6.82217Z" fill="#2C2E3A"/>
</svg>
